<svg width="45" height="45" viewBox="0 0 45 45" fill="none" xmlns="http://www.w3.org/2000/svg">
<path d="M37.5 15L26.25 5.13751C25.2187 4.2151 23.8836 3.70514 22.5 3.70514C21.1164 3.70514 19.7813 4.2151 18.75 5.13751L7.49999 15C6.90444 15.5326 6.42918 16.1861 6.10588 16.9167C5.78258 17.6474 5.61864 18.4385 5.62499 19.2375V35.625C5.62499 37.1169 6.21763 38.5476 7.27252 39.6025C8.32741 40.6574 9.75815 41.25 11.25 41.25H33.75C35.2418 41.25 36.6726 40.6574 37.7275 39.6025C38.7824 38.5476 39.375 37.1169 39.375 35.625V19.2188C39.3787 18.4229 39.2135 17.6354 38.8902 16.9082C38.567 16.1809 38.0932 15.5306 37.5 15ZM26.25 37.5H18.75V28.125C18.75 27.6277 18.9475 27.1508 19.2992 26.7992C19.6508 26.4476 20.1277 26.25 20.625 26.25H24.375C24.8723 26.25 25.3492 26.4476 25.7008 26.7992C26.0525 27.1508 26.25 27.6277 26.25 28.125V37.5ZM35.625 35.625C35.625 36.1223 35.4275 36.5992 35.0758 36.9508C34.7242 37.3025 34.2473 37.5 33.75 37.5H30V28.125C30 26.6332 29.4074 25.2024 28.3525 24.1475C27.2976 23.0926 25.8668 22.5 24.375 22.5H20.625C19.1332 22.5 17.7024 23.0926 16.6475 24.1475C15.5926 25.2024 15 26.6332 15 28.125V37.5H11.25C10.7527 37.5 10.2758 37.3025 9.92417 36.9508C9.57254 36.5992 9.37499 36.1223 9.37499 35.625V19.2188C9.37533 18.9525 9.43236 18.6894 9.54228 18.447C9.6522 18.2045 9.81249 17.9882 10.0125 17.8125L21.2625 7.96876C21.6047 7.66816 22.0445 7.50238 22.5 7.50238C22.9554 7.50238 23.3953 7.66816 23.7375 7.96876L34.9875 17.8125C35.1875 17.9882 35.3478 18.2045 35.4577 18.447C35.5676 18.6894 35.6247 18.9525 35.625 19.2188V35.625Z" fill="#45BA66"/>
</svg>
