<svg width="45" height="45" viewBox="0 0 45 45" fill="none" xmlns="http://www.w3.org/2000/svg">
<path d="M13.125 30C12.7542 30 12.3916 30.11 12.0833 30.316C11.775 30.522 11.5346 30.8149 11.3927 31.1575C11.2508 31.5001 11.2137 31.8771 11.286 32.2408C11.3584 32.6045 11.537 32.9386 11.7992 33.2008C12.0614 33.4631 12.3955 33.6416 12.7592 33.714C13.1229 33.7863 13.4999 33.7492 13.8425 33.6073C14.1851 33.4654 14.478 33.225 14.684 32.9167C14.89 32.6084 15 32.2458 15 31.875C15 31.3777 14.8025 30.9008 14.4508 30.5492C14.0992 30.1975 13.6223 30 13.125 30ZM35.7375 22.5L38.0438 20.1938C39.0971 19.1391 39.6888 17.7094 39.6888 16.2187C39.6888 14.7281 39.0971 13.2984 38.0438 12.2438L32.7375 6.95625C31.6828 5.90287 30.2531 5.3112 28.7625 5.3112C27.2719 5.3112 25.8422 5.90287 24.7875 6.95625L22.5 9.2625C22.4705 7.79024 21.8649 6.38824 20.8132 5.35755C19.7615 4.32687 18.3476 3.74971 16.875 3.75H9.375C7.88316 3.75 6.45242 4.34263 5.39752 5.39752C4.34263 6.45242 3.75 7.88316 3.75 9.375V35.625C3.75 37.1168 4.34263 38.5476 5.39752 39.6025C6.45242 40.6574 7.88316 41.25 9.375 41.25H35.625C37.1168 41.25 38.5476 40.6574 39.6025 39.6025C40.6574 38.5476 41.25 37.1168 41.25 35.625V28.125C41.2503 26.6524 40.6731 25.2385 39.6424 24.1868C38.6118 23.1351 37.2098 22.5295 35.7375 22.5ZM18.75 35.625C18.75 36.1223 18.5525 36.5992 18.2008 36.9508C17.8492 37.3025 17.3723 37.5 16.875 37.5H9.375C8.87772 37.5 8.40081 37.3025 8.04918 36.9508C7.69754 36.5992 7.5 36.1223 7.5 35.625V9.375C7.5 8.87772 7.69754 8.40081 8.04918 8.04918C8.40081 7.69754 8.87772 7.5 9.375 7.5H16.875C17.3723 7.5 17.8492 7.69754 18.2008 8.04918C18.5525 8.40081 18.75 8.87772 18.75 9.375V35.625ZM22.5 14.55L27.45 9.6C27.8013 9.25078 28.2765 9.05476 28.7719 9.05476C29.2672 9.05476 29.7424 9.25078 30.0937 9.6L35.4 15C35.7492 15.3513 35.9452 15.8265 35.9452 16.3219C35.9452 16.8172 35.7492 17.2924 35.4 17.6437L30 23.0438L22.5 30.45V14.55ZM37.5 35.625C37.5 36.1223 37.3025 36.5992 36.9508 36.9508C36.5992 37.3025 36.1223 37.5 35.625 37.5H22.1625C22.3548 36.9443 22.4623 36.3628 22.4812 35.775L32.0062 26.25H35.625C36.1223 26.25 36.5992 26.4475 36.9508 26.7992C37.3025 27.1508 37.5 27.6277 37.5 28.125V35.625Z" fill="#2D673D"/>
</svg>
