<svg width="45" height="45" viewBox="0 0 45 45" fill="none" xmlns="http://www.w3.org/2000/svg">
<path d="M39.5062 31.5563L35.625 27.5813C34.7901 26.7877 33.737 26.2619 32.601 26.0714C31.465 25.881 30.298 26.0346 29.25 26.5125L27.5625 24.825C29.551 22.168 30.4592 18.8563 30.1041 15.5566C29.7491 12.2569 28.1572 9.21418 25.6489 7.04101C23.1406 4.86784 19.9022 3.72556 16.5856 3.84411C13.269 3.96266 10.1204 5.33324 7.77367 7.67995C5.42696 10.0267 4.05638 13.1753 3.93783 16.4919C3.81928 19.8085 4.96156 23.0469 7.13473 25.5552C9.3079 28.0635 12.3506 29.6554 15.6503 30.0104C18.95 30.3655 22.2617 29.4573 24.9187 27.4688L26.5875 29.1375C26.0533 30.1868 25.8618 31.3773 26.0401 32.5412C26.2184 33.7051 26.7574 34.7837 27.5812 35.625L31.5562 39.6C32.6109 40.6534 34.0406 41.2451 35.5312 41.2451C37.0219 41.2451 38.4515 40.6534 39.5062 39.6C40.042 39.0761 40.4677 38.4505 40.7583 37.7599C41.0489 37.0692 41.1987 36.3274 41.1987 35.5781C41.1987 34.8288 41.0489 34.0871 40.7583 33.3964C40.4677 32.7058 40.042 32.0801 39.5062 31.5563ZM23.6062 23.6063C22.2942 24.915 20.6237 25.8055 18.8057 26.1654C16.9878 26.5252 15.104 26.3381 13.3924 25.6279C11.6807 24.9176 10.2179 23.716 9.18882 22.1748C8.15973 20.6336 7.61049 18.822 7.61049 16.9688C7.61049 15.1156 8.15973 13.304 9.18882 11.7628C10.2179 10.2216 11.6807 9.01993 13.3924 8.30966C15.104 7.59939 16.9878 7.41235 18.8057 7.77217C20.6237 8.13199 22.2942 9.02252 23.6062 10.3313C24.4793 11.2021 25.172 12.2367 25.6446 13.3756C26.1172 14.5146 26.3605 15.7356 26.3605 16.9688C26.3605 18.2019 26.1172 19.4229 25.6446 20.5619C25.172 21.7009 24.4793 22.7354 23.6062 23.6063ZM36.8625 36.8625C36.6882 37.0382 36.4808 37.1777 36.2523 37.2729C36.0238 37.3681 35.7788 37.4171 35.5312 37.4171C35.2837 37.4171 35.0386 37.3681 34.8102 37.2729C34.5817 37.1777 34.3743 37.0382 34.2 36.8625L30.225 32.8875C30.0492 32.7132 29.9097 32.5058 29.8146 32.2773C29.7194 32.0489 29.6704 31.8038 29.6704 31.5563C29.6704 31.3087 29.7194 31.0637 29.8146 30.8352C29.9097 30.6067 30.0492 30.3993 30.225 30.225C30.3993 30.0493 30.6067 29.9098 30.8351 29.8146C31.0636 29.7194 31.3087 29.6704 31.5562 29.6704C31.8038 29.6704 32.0488 29.7194 32.2773 29.8146C32.5058 29.9098 32.7132 30.0493 32.8875 30.225L36.8625 34.2C37.0382 34.3743 37.1777 34.5817 37.2729 34.8102C37.3681 35.0387 37.4171 35.2837 37.4171 35.5313C37.4171 35.7788 37.3681 36.0239 37.2729 36.2523C37.1777 36.4808 37.0382 36.6882 36.8625 36.8625Z" fill="#2D673D"/>
</svg>
