<svg width="26" height="24" viewBox="0 0 26 24" fill="none" xmlns="http://www.w3.org/2000/svg">
<path d="M13 0L16.9 2.925L22.1924 3.42685V8.775L26 11.7L22.1924 14.625V19.9732L16.9 19.89L13 23.4L9.36617 19.9732H3.80761V14.04L0 11.7L3.80761 8.19V3.42685L9.1 2.925L13 0Z" fill="#45BA66"/>
<path d="M18 6L14.6308 12.272C13.0818 15.0216 12.2927 16.6632 11.4648 16.8209C11.0503 16.8998 12.0867 16.7024 11.413 16.5162C10.7393 16.3301 11.5473 17.0494 11.2241 16.7617C11.0415 16.5991 10.5985 16.0681 9.66667 14.3334L8 11" stroke="black" stroke-width="2.5" stroke-linecap="round"/>
</svg>
